<mxfile host="app.diagrams.net" modified="2023-06-05T04:47:18.966Z" agent="Mozilla/5.0 (Windows NT 10.0; Win64; x64) AppleWebKit/537.36 (KHTML, like Gecko) Chrome/114.0.0.0 Safari/537.36" etag="7LnJdojt-bJ8aNJnpvkC" version="21.3.7" type="github">
  <diagram name="Page-1" id="5f0bae14-7c28-e335-631c-24af17079c00">
    <mxGraphModel dx="1134" dy="614" grid="1" gridSize="10" guides="1" tooltips="1" connect="1" arrows="1" fold="1" page="1" pageScale="1" pageWidth="1100" pageHeight="850" background="none" math="0" shadow="0">
      <root>
        <mxCell id="0" />
        <mxCell id="1" parent="0" />
        <mxCell id="Vp28ZbfL1DXBY5cR7klY-11" style="edgeStyle=orthogonalEdgeStyle;rounded=0;orthogonalLoop=1;jettySize=auto;html=1;exitX=1;exitY=0.5;exitDx=0;exitDy=0;entryX=0.5;entryY=0;entryDx=0;entryDy=0;" edge="1" parent="1" source="Vp28ZbfL1DXBY5cR7klY-1" target="Vp28ZbfL1DXBY5cR7klY-3">
          <mxGeometry relative="1" as="geometry" />
        </mxCell>
        <mxCell id="Vp28ZbfL1DXBY5cR7klY-13" style="edgeStyle=orthogonalEdgeStyle;rounded=0;orthogonalLoop=1;jettySize=auto;html=1;exitX=0;exitY=0.5;exitDx=0;exitDy=0;entryX=0.5;entryY=0;entryDx=0;entryDy=0;" edge="1" parent="1" source="Vp28ZbfL1DXBY5cR7klY-1" target="Vp28ZbfL1DXBY5cR7klY-2">
          <mxGeometry relative="1" as="geometry" />
        </mxCell>
        <mxCell id="Vp28ZbfL1DXBY5cR7klY-1" value="&lt;h2&gt;App.js&lt;/h2&gt;" style="rounded=1;whiteSpace=wrap;html=1;fontStyle=1" vertex="1" parent="1">
          <mxGeometry x="490" y="90" width="120" height="60" as="geometry" />
        </mxCell>
        <mxCell id="Vp28ZbfL1DXBY5cR7klY-12" style="edgeStyle=orthogonalEdgeStyle;rounded=0;orthogonalLoop=1;jettySize=auto;html=1;exitX=0.5;exitY=1;exitDx=0;exitDy=0;entryX=0.5;entryY=0;entryDx=0;entryDy=0;" edge="1" parent="1" source="Vp28ZbfL1DXBY5cR7klY-2" target="Vp28ZbfL1DXBY5cR7klY-5">
          <mxGeometry relative="1" as="geometry" />
        </mxCell>
        <mxCell id="Vp28ZbfL1DXBY5cR7klY-14" style="edgeStyle=orthogonalEdgeStyle;rounded=0;orthogonalLoop=1;jettySize=auto;html=1;exitX=0;exitY=0.5;exitDx=0;exitDy=0;entryX=0.5;entryY=0;entryDx=0;entryDy=0;" edge="1" parent="1" source="Vp28ZbfL1DXBY5cR7klY-2" target="Vp28ZbfL1DXBY5cR7klY-4">
          <mxGeometry relative="1" as="geometry" />
        </mxCell>
        <mxCell id="Vp28ZbfL1DXBY5cR7klY-15" style="edgeStyle=orthogonalEdgeStyle;rounded=0;orthogonalLoop=1;jettySize=auto;html=1;exitX=1;exitY=0.5;exitDx=0;exitDy=0;entryX=0.5;entryY=0;entryDx=0;entryDy=0;" edge="1" parent="1" source="Vp28ZbfL1DXBY5cR7klY-2" target="Vp28ZbfL1DXBY5cR7klY-6">
          <mxGeometry relative="1" as="geometry" />
        </mxCell>
        <mxCell id="Vp28ZbfL1DXBY5cR7klY-2" value="&lt;h2&gt;Products.js&lt;/h2&gt;" style="rounded=1;whiteSpace=wrap;html=1;fontStyle=1" vertex="1" parent="1">
          <mxGeometry x="240" y="220" width="120" height="60" as="geometry" />
        </mxCell>
        <mxCell id="Vp28ZbfL1DXBY5cR7klY-16" style="edgeStyle=orthogonalEdgeStyle;rounded=0;orthogonalLoop=1;jettySize=auto;html=1;exitX=0.5;exitY=1;exitDx=0;exitDy=0;entryX=0.5;entryY=0;entryDx=0;entryDy=0;" edge="1" parent="1" source="Vp28ZbfL1DXBY5cR7klY-3" target="Vp28ZbfL1DXBY5cR7klY-7">
          <mxGeometry relative="1" as="geometry" />
        </mxCell>
        <mxCell id="Vp28ZbfL1DXBY5cR7klY-3" value="" style="rounded=1;whiteSpace=wrap;html=1;" vertex="1" parent="1">
          <mxGeometry x="710" y="220" width="120" height="60" as="geometry" />
        </mxCell>
        <mxCell id="Vp28ZbfL1DXBY5cR7klY-4" value="&lt;h2&gt;&lt;br&gt;&lt;/h2&gt;" style="rounded=1;whiteSpace=wrap;html=1;" vertex="1" parent="1">
          <mxGeometry x="30" y="365" width="120" height="60" as="geometry" />
        </mxCell>
        <mxCell id="Vp28ZbfL1DXBY5cR7klY-5" value="" style="rounded=1;whiteSpace=wrap;html=1;" vertex="1" parent="1">
          <mxGeometry x="120" y="490" width="120" height="60" as="geometry" />
        </mxCell>
        <mxCell id="Vp28ZbfL1DXBY5cR7klY-6" value="" style="rounded=1;whiteSpace=wrap;html=1;" vertex="1" parent="1">
          <mxGeometry x="360" y="490" width="120" height="60" as="geometry" />
        </mxCell>
        <mxCell id="Vp28ZbfL1DXBY5cR7klY-7" value="" style="rounded=1;whiteSpace=wrap;html=1;" vertex="1" parent="1">
          <mxGeometry x="780" y="390" width="120" height="60" as="geometry" />
        </mxCell>
      </root>
    </mxGraphModel>
  </diagram>
</mxfile>
